# xmcd
# 
# Track frame offsets:
#     150
#     15284
#     28441
#     42560
#     53237
#     69533
#     81590
#     94665
#     110978
#     124753
#     139662
#     151292
# 
# Disc length: 2252
# 
# Revision: 3
# Processed by: cddbd v1.5.2PL0 Copyright (c) Steve Scherf et al.
# Submitted via: BonkEnc v1.0.8
# 
DISCID=a908ca0c
DTITLE=Tião Carreiro and Pardinho - Modas de Viola Classe A - Vol.2
DYEAR=1975
DGENRE=Folk
TTITLE0=Travessia do Araguaia
TTITLE1=Cabelos Cor de Prata
TTITLE2=Um Pouco de Minha Vida
TTITLE3=Clarineta
TTITLE4=As Três Cuiabanas
TTITLE5=Derrota
TTITLE6=Boiadeiro Punho de Aço
TTITLE7=Consagração
TTITLE8=Ingrata
TTITLE9=Lobisomem
TTITLE10=Minha Vida
TTITLE11=Última Viagem
EXTD=
EXTT0=
EXTT1=
EXTT2=
EXTT3=
EXTT4=
EXTT5=
EXTT6=
EXTT7=
EXTT8=
EXTT9=
EXTT10=
EXTT11=
PLAYORDER=
